<svg width="25" height="22" viewBox="0 0 25 22" fill="none" xmlns="http://www.w3.org/2000/svg">
<path fill-rule="evenodd" clip-rule="evenodd" d="M20.2651 1.18863L24.3675 7.53606C24.4823 7.71945 24.5343 7.93499 24.5154 8.15025C24.4965 8.36552 24.4079 8.56887 24.2629 8.72972L13.2712 21.3923C13.1777 21.4893 13.0658 21.567 12.942 21.621C12.8182 21.675 12.685 21.7042 12.5498 21.7068C12.4136 21.7112 12.2782 21.6852 12.1534 21.6307C12.0286 21.5763 11.9176 21.4948 11.8284 21.3923L0.743044 8.70101C0.592483 8.54231 0.500977 8.33718 0.483702 8.11964C0.466426 7.90209 0.524418 7.68521 0.648061 7.50496L4.75519 1.15514C4.83616 1.01972 4.95161 0.90795 5.08988 0.831093C5.22814 0.754235 5.38434 0.715014 5.54271 0.717387H19.444C19.6088 0.724407 19.7696 0.770913 19.9126 0.852954C20.0555 0.934994 20.1765 1.05015 20.2651 1.18863Z" fill="#FF417D"/>
</svg>
