<svg width="24" height="25" viewBox="0 0 24 25" fill="none" xmlns="http://www.w3.org/2000/svg">
<path d="M20.4226 13.6106C20.5379 12.8892 20.5379 12.1677 20.4226 11.4174L22.7564 9.57054C22.958 9.39739 23.0157 9.10881 22.9004 8.84909L20.6819 5.01102C20.5379 4.78016 20.2498 4.66473 19.9905 4.78016L17.2246 5.90561C16.6483 5.47274 16.0145 5.09759 15.3518 4.80902L14.9196 1.86553C14.8908 1.60581 14.6603 1.40381 14.3722 1.40381H9.96405C9.70475 1.40381 9.44544 1.60581 9.41663 1.86553L8.98446 4.80902C8.32179 5.09759 7.68794 5.44389 7.11171 5.90561L4.3458 4.78016C4.0865 4.66473 3.79838 4.78016 3.65433 5.01102L1.43584 8.84909C1.29178 9.07996 1.3494 9.39739 1.5799 9.57054L3.91363 11.4174C3.85601 11.7926 3.8272 12.1389 3.8272 12.514C3.8272 12.8892 3.85601 13.2355 3.91363 13.6106L1.5799 15.4575C1.37822 15.6307 1.32059 15.9192 1.43584 16.179L3.65433 20.017C3.79838 20.2479 4.0865 20.3633 4.3458 20.2479L7.11171 19.1224C7.68794 19.5553 8.32179 19.9305 8.98446 20.219L9.41663 23.1625C9.44544 23.4222 9.67593 23.6242 9.96405 23.6242H14.401C14.6603 23.6242 14.9196 23.4222 14.9484 23.1625L15.3806 20.219C16.0433 19.9305 16.6771 19.5842 17.2534 19.1224L20.0193 20.2479C20.2786 20.3633 20.5667 20.2479 20.7107 20.017L22.9292 16.179C23.0733 15.9481 23.0157 15.6307 22.7852 15.4575L20.4226 13.6106ZM12.1825 16.4098C10.0217 16.4098 8.29298 14.6784 8.29298 12.514C8.29298 10.3497 10.0217 8.61823 12.1825 8.61823C14.3434 8.61823 16.0721 10.3497 16.0721 12.514C16.0721 14.6495 14.3434 16.4098 12.1825 16.4098Z" fill="#FF417D"/>
<path d="M14.4014 24.5192H9.96444C9.24415 24.5192 8.6103 23.9997 8.52386 23.2783L8.14931 20.8254C7.74595 20.6234 7.34259 20.3925 6.96804 20.1328L4.66312 21.0563C4.00045 21.3448 3.25135 21.0851 2.8768 20.4791C2.8768 20.4791 2.8768 20.4502 2.84799 20.4502L0.658316 16.6122C0.658316 16.6122 0.629504 16.5833 0.629504 16.5545C0.341389 15.9196 0.514258 15.227 1.00405 14.7941L1.03287 14.7653L2.96324 13.2358C2.93443 13.005 2.93443 12.7741 2.93443 12.5144C2.93443 12.2547 2.93443 12.0527 2.96324 11.7929L1.03287 10.2635C0.456635 9.83061 0.312578 8.99374 0.687127 8.38772L2.90561 4.54965C2.90561 4.54965 2.90561 4.52079 2.93443 4.52079C3.30898 3.91478 4.08689 3.65506 4.72074 3.94364L7.02566 4.86708C7.3714 4.60736 7.77476 4.3765 8.20694 4.1745L8.58149 1.72159C8.66792 1.02901 9.30177 0.480713 10.0221 0.480713H14.4302C15.1505 0.480713 15.7844 1.00015 15.8708 1.72159L16.2454 4.1745C16.6487 4.3765 17.0521 4.60736 17.4266 4.86708L19.7315 3.94364C20.3942 3.65506 21.1433 3.91478 21.5179 4.52079C21.5179 4.52079 21.5179 4.54965 21.5467 4.54965L23.7652 8.38772C23.794 8.41658 23.794 8.44544 23.794 8.4743C24.0821 9.10917 23.9092 9.80175 23.4194 10.2346L23.3906 10.2635L21.4602 11.7929C21.489 12.2835 21.5179 12.7452 21.4602 13.207L23.4194 14.7364C23.9957 15.1693 24.1685 16.0062 23.794 16.6122L21.5755 20.4502C21.5755 20.4502 21.5755 20.4791 21.5467 20.4791C21.1721 21.0851 20.3942 21.3448 19.7604 21.0563L17.4554 20.1328C17.1097 20.3925 16.7063 20.6234 16.2742 20.8254L15.8996 23.2783C15.7556 23.9709 15.1217 24.5192 14.4014 24.5192ZM10.2526 22.73H14.1133L14.4879 20.0751C14.5455 19.7577 14.7183 19.4979 15.0065 19.3825C15.6979 19.0939 16.2165 18.7765 16.6775 18.4013C16.9368 18.1993 17.2826 18.1416 17.5707 18.2859L20.0773 19.2959L22.0077 15.9773L19.8756 14.3036C19.6163 14.1015 19.5011 13.7841 19.5587 13.4667C19.6451 12.8318 19.6451 12.1969 19.5587 11.5621C19.5011 11.2446 19.6451 10.9272 19.8756 10.7252L21.9788 9.05145L20.0485 5.73281L17.5707 6.74283C17.2826 6.85827 16.9656 6.82941 16.7063 6.6274C16.1589 6.2234 15.6115 5.8771 15.0065 5.64624C14.7183 5.53081 14.5167 5.27109 14.4879 4.95366L14.1133 2.29875H10.2526L9.87801 4.9248C9.82038 5.24223 9.64751 5.50195 9.3594 5.61738C8.66792 5.90596 8.14931 6.2234 7.68833 6.59855C7.42903 6.80055 7.08329 6.85827 6.79517 6.74283L4.28857 5.73281L2.3582 9.05145L4.46144 10.7252C4.72074 10.9272 4.83599 11.2446 4.77836 11.5621C4.72074 11.9084 4.69193 12.1969 4.69193 12.5144C4.69193 12.8318 4.72074 13.1204 4.77836 13.4667C4.83599 13.7841 4.69193 14.1015 4.46144 14.3036L2.3582 15.9773L4.28857 19.2959L6.79517 18.2859C7.08329 18.1705 7.40021 18.1993 7.65952 18.4013C8.20694 18.8054 8.75436 19.1228 9.3594 19.3825C9.64751 19.4979 9.84919 19.7577 9.87801 20.0751L10.2526 22.73ZM22.2382 16.1504C22.2382 16.1793 22.2382 16.1793 22.2382 16.1504V16.1504ZM2.1277 8.84945C2.1277 8.8783 2.1277 8.84945 2.1277 8.84945V8.84945ZM12.1829 17.3048C9.56108 17.3048 7.40021 15.1693 7.40021 12.5144C7.40021 9.85947 9.56108 7.724 12.1829 7.724C14.8048 7.724 16.9656 9.88832 16.9656 12.5144C16.9656 15.1404 14.8048 17.3048 12.1829 17.3048ZM12.1829 9.51317C10.5119 9.51317 9.18653 10.8406 9.18653 12.5144C9.18653 14.1881 10.5119 15.5156 12.1829 15.5156C13.8252 15.5156 15.1793 14.1593 15.1793 12.5144C15.1793 10.8406 13.854 9.51317 12.1829 9.51317Z" fill="#FF417D"/>
</svg>
