<svg width="25" height="23" viewBox="0 0 25 23" fill="none" xmlns="http://www.w3.org/2000/svg">
<g clip-path="url(#clip0_428_3)">
<path d="M24.5581 4.31336C24.0593 3.33598 23.4594 2.41366 22.768 1.56157C22.4414 1.10691 22.0175 0.730813 21.5272 0.460674C21.0369 0.190536 20.4925 0.0331575 19.9337 0H5.0575C4.49878 0.0350734 3.95478 0.193603 3.46468 0.464173C2.97458 0.734743 2.55057 1.11062 2.22319 1.56474C1.54728 2.42732 0.949294 3.3482 0.43627 4.31654C0.19568 4.79268 0.0512979 5.31157 0.0113804 5.84355C-0.0285371 6.37553 0.0367922 6.91016 0.203633 7.41687C0.370474 7.92359 0.635555 8.39245 0.983719 8.79664C1.33188 9.20084 1.7563 9.53245 2.23271 9.77251C2.37122 9.83834 2.5132 9.89661 2.65802 9.94708C3.17065 10.1348 3.71545 10.219 4.26085 10.1946C4.36559 10.1946 4.47033 10.1946 4.57824 10.1946C5.99279 10.2078 7.3576 9.67325 8.38695 8.7029C8.93255 9.21625 9.5769 9.61322 10.2808 9.86968C10.9847 10.1261 11.7334 10.2367 12.4813 10.1946C13.2292 10.2361 13.9778 10.1253 14.6816 9.86889C15.3854 9.61247 16.0297 9.21579 16.5757 8.7029C17.5998 9.66927 18.9541 10.2085 20.3622 10.2105C20.4732 10.2105 20.5875 10.2105 20.7018 10.2105H20.8192C21.8736 10.243 22.8991 9.86345 23.6783 9.1524C24.4575 8.44135 24.929 7.45473 24.9929 6.4018C25.0355 5.67943 24.8855 4.95871 24.5581 4.31336Z" fill="#FF417D"/>
<path d="M22.3903 11.8515C21.8611 12.0576 21.2943 12.1495 20.7271 12.1213H20.6986C20.5843 12.1213 20.47 12.1213 20.3589 12.1213C19.0362 12.1242 17.7561 11.6536 16.7502 10.7946C16.7016 10.7502 16.6382 10.7256 16.5725 10.7256C16.5067 10.7256 16.4433 10.7502 16.3947 10.7946C15.3104 11.7279 13.9065 12.2046 12.4781 12.1245C11.0496 12.2049 9.64562 11.7282 8.56147 10.7946C8.51228 10.7515 8.44912 10.7278 8.38374 10.7278C8.31835 10.7278 8.25519 10.7515 8.206 10.7946C7.11884 11.7339 5.70763 12.2111 4.2735 12.1245C3.84546 12.1434 3.41708 12.0952 3.00394 11.9816C2.96559 11.973 2.92579 11.9732 2.88752 11.9821C2.84926 11.9911 2.81351 12.0086 2.78297 12.0333C2.75243 12.058 2.72789 12.0894 2.71119 12.1249C2.69449 12.1605 2.68606 12.1994 2.68654 12.2387V18.904C2.68654 19.7962 3.041 20.652 3.67194 21.2829C4.30288 21.9139 5.15862 22.2683 6.0509 22.2683H9.86913V15.2159C9.86913 14.9532 9.97346 14.7013 10.1592 14.5156C10.3449 14.3299 10.5968 14.2256 10.8594 14.2256H14.5285C14.7914 14.2256 15.0436 14.3298 15.2298 14.5154C15.416 14.7011 15.521 14.9529 15.5219 15.2159V22.2524H19.3782C20.2699 22.2524 21.1252 21.8984 21.756 21.2682C22.3869 20.6379 22.7417 19.783 22.7426 18.8913V12.1054C22.7435 12.0627 22.7341 12.0203 22.715 11.9821C22.696 11.9438 22.6679 11.9107 22.6332 11.8858C22.5985 11.8608 22.5583 11.8446 22.516 11.8386C22.4736 11.8326 22.4305 11.8371 22.3903 11.8515Z" fill="#FF417D"/>
</g>
<defs>
<clipPath id="clip0_428_3">
<rect width="25" height="23" fill="white"/>
</clipPath>
</defs>
</svg>
