<svg width="25" height="22" viewBox="0 0 25 22" fill="none" xmlns="http://www.w3.org/2000/svg">
<g clip-path="url(#clip0_618_189)">
<path d="M24.3675 7.53603L20.2652 1.1886C20.1765 1.05012 20.0555 0.934966 19.9126 0.852925C19.7696 0.770884 19.6089 0.724379 19.444 0.717358H5.54273C5.38436 0.714985 5.22816 0.754207 5.08989 0.831064C4.95163 0.907922 4.83618 1.0197 4.75521 1.15511L0.64808 7.50493C0.524437 7.68518 0.466445 7.90206 0.483721 8.11961C0.500996 8.33715 0.592502 8.54228 0.743063 8.70098L11.8285 21.3922C11.9176 21.4948 12.0286 21.5763 12.1534 21.6307C12.2782 21.6851 12.4137 21.7111 12.5499 21.7068C12.685 21.7041 12.8183 21.675 12.942 21.621C13.0658 21.567 13.1777 21.4893 13.2713 21.3922L24.2629 8.72969C24.4079 8.56884 24.4965 8.36549 24.5154 8.15022C24.5343 7.93496 24.4824 7.71942 24.3675 7.53603ZM21.7777 7.09588H18.5242L19.6929 3.89167L21.7777 7.09588ZM15.7444 9.04903L12.4909 17.9716L9.23867 9.04903H15.7444ZM6.4589 7.09588H3.20542L5.29024 3.89167L6.4589 7.09588ZM21.4302 9.04903L15.1781 16.2122L17.7992 9.04903H21.4302ZM14.4183 2.69682H18.0817L16.8506 6.02781L14.4183 2.69682ZM9.7749 7.09588L12.4909 3.35704L15.207 7.09588H9.7749ZM8.13253 6.02781L6.90135 2.69682H10.5648L8.13253 6.02781ZM7.1851 9.04903L9.80616 16.2122L3.55289 9.04903H7.1851Z" fill="#919299"/>
</g>
<defs>
<clipPath id="clip0_618_189">
<rect width="25" height="22" fill="white"/>
</clipPath>
</defs>
</svg>
