<svg width="25" height="22" viewBox="0 0 25 22" fill="none" xmlns="http://www.w3.org/2000/svg">
<g clip-path="url(#clip0_428_9)">
<path d="M12.4945 21.9387H12.4308C11.7892 21.9265 11.1784 21.6626 10.7313 21.2046L2.49092 12.7154C2.39476 12.6198 2.33106 12.5241 2.23491 12.4285C0.985243 10.9841 0.361342 9.10631 0.499635 7.20562C0.637929 5.30493 1.52716 3.53604 2.97289 2.28577C2.9772 2.28594 2.98149 2.28522 2.98551 2.28365C2.98952 2.28209 2.99317 2.27972 2.99621 2.27669C2.99926 2.27366 3.00165 2.27003 3.00322 2.26604C3.00479 2.26204 3.00551 2.25777 3.00534 2.25349C4.37528 1.15048 6.11662 0.608956 7.87416 0.739378C9.6317 0.869801 11.273 1.66234 12.4633 2.95533L12.4957 2.98762L12.5594 2.92425C13.751 1.64197 15.3887 0.859113 17.1396 0.734746C18.8906 0.610378 20.6235 1.15383 21.9861 2.25468L22.0823 2.35033C22.1502 2.42185 22.2255 2.48598 22.307 2.54164C23.6879 3.86612 24.4838 5.6817 24.5198 7.58955C24.5559 9.4974 23.8292 11.3415 22.4993 12.7166L14.2589 21.2058C14.2265 21.2381 14.2265 21.2691 14.1952 21.2691C13.7378 21.7045 13.1275 21.9447 12.4945 21.9387ZM4.38275 3.95012C3.38108 4.82208 2.76543 6.05177 2.66935 7.37241C2.57327 8.69305 3.00451 9.99811 3.86952 11.0045C3.932 11.06 3.98587 11.1245 4.02938 11.1958L12.301 19.6849C12.3647 19.7483 12.4296 19.7483 12.4933 19.7806C12.557 19.7806 12.6219 19.7806 12.6532 19.7172L20.9248 11.2281C21.8455 10.2658 22.3518 8.9838 22.3359 7.65544C22.3303 6.99775 22.1912 6.34795 21.9268 5.7451C21.6624 5.14226 21.2783 4.5988 20.7974 4.1474C20.7415 4.08525 20.6767 4.03166 20.6051 3.98838L20.5726 3.9561C19.6371 3.21862 18.4554 2.86125 17.2655 2.95599C16.0757 3.05072 14.9661 3.59052 14.1604 4.46664L13.2902 5.35381C13.1929 5.45925 13.0737 5.5424 12.9408 5.59751C12.808 5.65263 12.6648 5.6784 12.521 5.67305C12.2328 5.66903 11.9573 5.55469 11.7517 5.35381L10.9176 4.49294C10.0975 3.59996 8.96877 3.04793 7.75713 2.94728C6.54549 2.84664 5.34033 3.2048 4.38275 3.95012Z" fill="#919299"/>
</g>
<defs>
<clipPath id="clip0_428_9">
<rect width="25" height="22" fill="white"/>
</clipPath>
</defs>
</svg>
