<svg width="25" height="22" viewBox="0 0 25 22" fill="none" xmlns="http://www.w3.org/2000/svg">
<g clip-path="url(#clip0_428_2)">
<path d="M12.4982 21.8918H12.4345C12.1378 21.8909 11.8446 21.828 11.574 21.7071C11.3034 21.5861 11.0613 21.41 10.8636 21.1899L2.46696 12.5489C2.3708 12.4533 2.3071 12.3576 2.21095 12.262C0.977027 10.836 0.361699 8.98148 0.499804 7.10494C0.637909 5.2284 1.51818 3.48284 2.94773 2.25079C4.30055 1.15676 6.02177 0.616955 7.76073 0.74136C9.4997 0.865764 11.1256 1.64501 12.3071 2.92036L12.4994 3.11166L12.7242 2.88807C13.9081 1.62812 15.5265 0.859191 17.2557 0.735051C18.985 0.610912 20.6976 1.14071 22.0511 2.21851C22.0835 2.25079 22.1148 2.25079 22.1148 2.28188C22.1785 2.34525 22.2746 2.40981 22.3395 2.47318C23.0194 3.11462 23.5626 3.88549 23.937 4.73996C24.3113 5.59443 24.5091 6.51505 24.5186 7.44709C24.5532 9.33127 23.8393 11.153 22.5319 12.5167L14.1328 21.1899L14.0691 21.2533C13.647 21.6584 13.0847 21.887 12.4982 21.8918Z" fill="#FF417D"/>
</g>
<defs>
<clipPath id="clip0_428_2">
<rect width="25" height="22" fill="white"/>
</clipPath>
</defs>
</svg>
